<?xml version="1.0" encoding="UTF-8" standalone="no"?>
<!-- Created with Inkscape (http://www.inkscape.org/) -->

<svg
   width="370mm"
   height="370mm"
   viewBox="0 0 370 370"
   version="1.1"
   id="svg16658"
   sodipodi:docname="base_bottom_one_side-slope.svg"
   inkscape:version="1.2.1 (9c6d41e410, 2022-07-14)"
   xmlns:inkscape="http://www.inkscape.org/namespaces/inkscape"
   xmlns:sodipodi="http://sodipodi.sourceforge.net/DTD/sodipodi-0.dtd"
   xmlns="http://www.w3.org/2000/svg"
   xmlns:svg="http://www.w3.org/2000/svg">
  <sodipodi:namedview
     id="namedview16660"
     pagecolor="#ffffff"
     bordercolor="#666666"
     borderopacity="1.0"
     inkscape:showpageshadow="2"
     inkscape:pageopacity="0.0"
     inkscape:pagecheckerboard="0"
     inkscape:deskcolor="#d1d1d1"
     inkscape:document-units="mm"
     showgrid="false"
     inkscape:zoom="1.0783559"
     inkscape:cx="997.81532"
     inkscape:cy="703.84928"
     inkscape:window-width="1920"
     inkscape:window-height="986"
     inkscape:window-x="-11"
     inkscape:window-y="1429"
     inkscape:window-maximized="1"
     inkscape:current-layer="layer1" />
  <defs
     id="defs16655" />
  <g
     inkscape:label="Layer 1"
     inkscape:groupmode="layer"
     id="layer1"
     transform="translate(37.486665,43.660665)">
    <path
       id="path9877"
       style="fill:none;fill-opacity:1;stroke:#ff0000;stroke-width:0.05;stroke-dasharray:none;stroke-dashoffset:0;stroke-opacity:1"
       d="m 315.26537,-31.694675 h -2.99982 v -6.00015 -1.50017 h -58.84912 v 1.50017 6.00015 h -2.99981 v 5.999625 h 2.99981 v 6.05648 h -2.99981 v 6.00015 h 2.99981 v 6.0564804 h -2.99981 v 6.00015 h 2.99981 v 6.0559597 h -2.99981 V 10.47432 h 2.99981 v 6.05648 h -2.99981 v 6.00015 h 2.99981 v 6.05596 h -2.99981 v 6.00015 h 2.99981 v 6.05648 h -2.99981 v 6.00015 h 2.99981 v 6.05648 h -2.99981 v 5.99963 h 2.99981 v 6.00015 1.50018 h 58.84912 V 64.69995 58.6998 h 2.99982 v -5.99963 h -2.99982 v -6.05648 h 2.99982 v -6.00015 h -2.99982 v -6.05648 h 2.99982 v -6.00015 h -2.99982 v -6.05596 h 2.99982 V 16.5308 h -2.99982 v -6.05648 h 2.99982 V 4.4741701 h -2.99982 v -6.0559597 h 2.99982 v -6.00015 h -2.99982 V -13.63842 h 2.99982 v -6.00015 h -2.99982 v -6.05648 h 2.99982 z" />
    <path
       id="path9717"
       style="fill:none;fill-opacity:1;stroke:#ff0000;stroke-width:0.05;stroke-dasharray:none;stroke-dashoffset:0;stroke-opacity:1"
       d="m 208.80121,322.16275 h 1.50528 108.90764 l -1e-5,-1.50527 1e-5,-9.03377 3.01107,10e-6 -10e-6,-6.02268 h -3.01107 V 297.169 h 3.01107 l 10e-6,-6.02269 h -3.01107 v -8.43204 h 3.01106 v -6.02268 l -3.01107,10e-6 1e-5,-8.43207 3.01107,-10e-6 -10e-6,-6.02213 -3.01107,-1e-5 v -8.43256 l 3.01107,-1e-5 v -6.02216 h -3.01106 v -8.43257 h 3.01107 l -10e-6,-6.02214 -3.01107,-1e-5 v -8.43205 l 3.01107,-1e-5 10e-6,-6.02267 -3.01107,1e-5 v -8.43206 l 3.01107,1e-5 -10e-6,-6.02269 -3.01107,10e-6 1e-5,-8.43207 h 3.01106 v -6.02266 l -3.01107,-1e-5 1e-5,-7.52846 -1e-5,-1.50529 -49.5186,1e-5 h -9.48969 z" />
    <path
       id="circle16785"
       style="fill:none;fill-opacity:1;stroke:#ff0000;stroke-width:0.05;stroke-opacity:1;stroke-dasharray:none"
       d="m -29.112215,204.10369 5.1e-4,5.1e-4 6.88279,9.82989 2.45721,-1.72082 3.44165,4.91494 -2.45721,1.72083 4.818311,6.88123 2.45721,-1.72082 3.4416478,4.91494 -2.4572068,1.72083 4.8183069,6.88123 2.45722,-1.72031 3.44164996,4.91495 -2.45773996,1.72031 4.8188299,6.88175 2.45722,-1.72083 3.4411291,4.91495 -2.4572094,1.72031 4.8183085,6.88175 2.45773,-1.72083 3.44113,4.91495 -2.45721,1.72031 4.81831,6.88175 2.45721,-1.72031 3.44165,4.91443 -2.45773,1.72082 4.81883,6.88124 2.45721,-1.72083 3.44165,4.91495 -2.45773,1.72082 4.81831,6.88124 2.45773,-1.72031 3.44114,4.91494 -2.45722,1.72031 4.81831,6.88123 2.45722,-1.7203 3.44165,4.91494 -2.45722,1.72083 6.68848,9.55239 v 0.10852 h 0.076 l 5.2e-4,5.1e-4 5.1e-4,-5.1e-4 h 8.99997 v -2.9993 h 5.99963 v 2.9993 h 6.05648 v -2.9993 h 6.00015 v 2.9993 h 6.05648 v -2.9993 h 6.00015 v 2.9993 h 6.055944 v -2.9993 h 6.000144 v 2.9993 h 6.05648 v -2.9993 h 6.00015 v 2.9993 h 6.05596 v -2.9993 h 6.00015 v 2.9993 h 6.05648 v -2.9993 h 6.00015 v 2.9993 h 6.05648 v -2.9993 h 5.99963 v 2.9993 h 8.96173 v -0.0264 l 0.0382,0.0269 6.76548,-9.66194 -2.45773,-1.72031 3.44165,-4.91546 2.45721,1.72082 4.81831,-6.88123 -2.45721,-1.72082 3.44162,-4.91495 2.4573,1.72083 4.8183,-6.88124 -2.4573,-1.72082 3.4417,-4.91495 2.4572,1.72031 4.8183,-6.88123 -2.4572,-1.72031 3.4411,-4.91495 2.4573,1.72083 4.8188,-6.88175 -2.4572,-1.72083 3.4411,-4.91443 2.4572,1.72083 4.8188,-6.88175 -2.4572,-1.72083 3.4412,-4.91443 2.4572,1.72031 4.8183,-6.88123 -2.4572,-1.72031 3.4416,-4.91546 2.4572,1.72082 4.8184,-6.88123 -2.4573,-1.72083 3.4417,-4.91494 2.4572,1.72082 4.8188,-6.88175 -2.4577,-1.72031 3.4416,-4.91494 2.4573,1.72031 6.8827,-9.82989 v -14.9996 h -2.9998 v -8.99997 h 2.9998 v -12.0003 h -2.9998 v -8.99997 h 2.9998 v -11.99978 h -2.9998 v -9.00049 h 2.9998 v -12.0003 h -2.9998 v -8.99945 h 2.9998 v -11.99979 h -2.9998 v -9.000496 h 2.9998 v -11.99978 h -2.9998 l -5e-4,-9.00049 h 3.0003 V 63.103996 h -2.9998 v -8.99996 h 2.9998 v -12.0003 h -2.9998 l -5e-4,-9.00049 h 3.0003 v -11.16831 h -2.9993 v -8.99997 h 2.9993 V 5.4351642 h -2.9993 v -8.99996 h 2.9993 V -36.564844 H -29.112215 v 33.0000582 h 5.1e-4 2.99982 v 8.99945 5.1e-4 h -2.99982 v -5.1e-4 h -5.1e-4 v 7.5003118 h 5.1e-4 2.99982 v 8.99997 h -2.99982 -5.1e-4 v 11.16831 h 3.00085 l -5.2e-4,9.00049 h -3.00033 v 12.0003 h 3.00033 v 8.99996 h -3.00033 v 11.999268 h 3.00033 v 9.00049 h -3.00033 v 11.99978 h 3.00033 v 9.000496 h -3.00033 v 11.99979 h 3.00033 v 8.99945 h -3.00033 v 12.0003 h 3.00033 v 9.00049 h -3.00033 v 11.99978 h 3.00033 v 8.99997 h -2.99982 l -5.1e-4,12.0003 h 3.00033 v 8.99997 h -3.00033 z M -7.9961962,176.941 v -5.00021 H 34.003822 v 5.00021 z m 0,-174.6250158 v -5.00021 H 34.003822 v 5.00021 z M 47.031972,147.0343 a 1.2219827,1.2219827 0 0 1 1.22215,-1.22215 1.2219827,1.2219827 0 0 1 1.22163,1.22215 1.2219827,1.2219827 0 0 1 -1.22163,1.22215 1.2219827,1.2219827 0 0 1 -1.22215,-1.22215 z m 0,-119.905874 a 1.2219827,1.2219827 0 0 1 1.22215,-1.22163 1.2219827,1.2219827 0 0 1 1.22163,1.22163 1.2219827,1.2219827 0 0 1 -1.22163,1.22215 1.2219827,1.2219827 0 0 1 -1.22215,-1.22215 z m 6.22184,115.000234 V 32.128636 H 163.25379 V 142.12866 Z m 3.82974,-4.9997 a 1.2219827,1.2219827 0 0 0 1.22163,1.22163 1.2219827,1.2219827 0 0 0 1.22215,-1.22163 1.2219827,1.2219827 0 0 0 -1.22215,-1.22214 1.2219827,1.2219827 0 0 0 -1.22163,1.22214 z m 0,-100.000624 a 1.2219827,1.2219827 0 0 0 1.22163,1.22215 1.2219827,1.2219827 0 0 0 1.22215,-1.22215 1.2219827,1.2219827 0 0 0 -1.22215,-1.22163 1.2219827,1.2219827 0 0 0 -1.22163,1.22163 z m 43.670698,50.000048 a 7.5,7.5 0 0 0 7.4998,7.4998 7.5,7.5 0 0 0 7.4998,-7.4998 7.5,7.5 0 0 0 -7.4998,-7.4998 7.5,7.5 0 0 0 -7.4998,7.4998 z m 56.22603,50.000576 a 1.2219827,1.2219827 0 0 0 1.22214,1.22163 1.2219827,1.2219827 0 0 0 1.22163,-1.22163 1.2219827,1.2219827 0 0 0 -1.22163,-1.22214 1.2219827,1.2219827 0 0 0 -1.22214,1.22214 z m 0,-100.000624 a 1.2219827,1.2219827 0 0 0 1.22214,1.22215 1.2219827,1.2219827 0 0 0 1.22163,-1.22215 1.2219827,1.2219827 0 0 0 -1.22163,-1.22163 1.2219827,1.2219827 0 0 0 -1.22214,1.22163 z m 9.89293,110.000014 a 1.2219827,1.2219827 0 0 1 1.22163,-1.22163 1.2219827,1.2219827 0 0 1 1.22215,1.22163 1.2219827,1.2219827 0 0 1 -1.22215,1.22215 1.2219827,1.2219827 0 0 1 -1.22163,-1.22215 z m 0.0553,-119.999924 a 1.2219827,1.2219827 0 0 1 1.22214,-1.22163 1.2219827,1.2219827 0 0 1 1.22215,1.22163 1.2219827,1.2219827 0 0 1 -1.22215,1.22215 1.2219827,1.2219827 0 0 1 -1.22214,-1.22215 z M 182.50428,176.941 v -5.00021 h 42 v 5.00021 z m 0,-174.6250158 v -5.00021 h 42 v 5.00021 z" />
    <path
       id="rect1514"
       style="fill:none;fill-opacity:1;stroke:#ff0000;stroke-width:0.05;stroke-dasharray:none;stroke-opacity:1"
       d="m 292.98589,134.34325 v 20.00032 h -9.99991 v 9.99991 h -20.00033 v 9.99991 h 30.00024 9.9999 v -9.99991 -30.00023 z m -4.9997,23.83007 a 1.2219827,1.2219827 0 0 1 1.22163,1.22214 1.2219827,1.2219827 0 0 1 -1.22163,1.22163 1.2219827,1.2219827 0 0 1 -1.22215,-1.22163 1.2219827,1.2219827 0 0 1 1.22215,-1.22214 z m 9.99939,9.94823 a 1.2219827,1.2219827 0 0 1 1.22215,1.22214 1.2219827,1.2219827 0 0 1 -1.22215,1.22163 1.2219827,1.2219827 0 0 1 -1.22163,-1.22163 1.2219827,1.2219827 0 0 1 1.22163,-1.22214 z" />
    <path
       id="path18748"
       style="fill:none;fill-opacity:1;stroke:#ff0000;stroke-width:0.05;stroke-dasharray:none;stroke-opacity:1"
       d="m 272.98581,164.34348 v -20.00032 h 9.99991 v -9.99991 h 20.00034 v -9.99991 h -30.00025 -9.9999 v 9.99991 30.00023 z m 4.99971,-23.83007 a 1.2219827,1.2219827 0 0 1 -1.22163,-1.22214 1.2219827,1.2219827 0 0 1 1.22163,-1.22163 1.2219827,1.2219827 0 0 1 1.22215,1.22163 1.2219827,1.2219827 0 0 1 -1.22215,1.22214 z m -9.9994,-9.94823 a 1.2219827,1.2219827 0 0 1 -1.22214,-1.22214 1.2219827,1.2219827 0 0 1 1.22214,-1.22163 1.2219827,1.2219827 0 0 1 1.22164,1.22163 1.2219827,1.2219827 0 0 1 -1.22164,1.22214 z" />
    <path
       id="path18759"
       style="fill:none;fill-opacity:1;stroke:#ff0000;stroke-width:0.05;stroke-dasharray:none;stroke-opacity:1"
       d="m 292.98616,82.176532 v 20.000308 h -9.99991 v 9.99991 h -20.00033 v 9.99991 h 30.00024 9.9999 v -9.99991 -30.000218 z m -4.9997,23.830058 a 1.2219827,1.2219827 0 0 1 1.22163,1.22214 1.2219827,1.2219827 0 0 1 -1.22163,1.22163 1.2219827,1.2219827 0 0 1 -1.22215,-1.22163 1.2219827,1.2219827 0 0 1 1.22215,-1.22214 z m 9.99939,9.94823 a 1.2219827,1.2219827 0 0 1 1.22215,1.22214 1.2219827,1.2219827 0 0 1 -1.22215,1.22163 1.2219827,1.2219827 0 0 1 -1.22163,-1.22163 1.2219827,1.2219827 0 0 1 1.22163,-1.22214 z" />
    <path
       id="path18761"
       style="fill:none;fill-opacity:1;stroke:#ff0000;stroke-width:0.05;stroke-dasharray:none;stroke-opacity:1"
       d="M 272.98608,112.17675 V 92.176442 h 9.99991 v -9.99991 h 20.00034 v -9.99991 h -30.00025 -9.9999 v 9.99991 30.000218 z m 4.99971,-23.830058 a 1.2219827,1.2219827 0 0 1 -1.22163,-1.22214 1.2219827,1.2219827 0 0 1 1.22163,-1.22163 1.2219827,1.2219827 0 0 1 1.22215,1.22163 1.2219827,1.2219827 0 0 1 -1.22215,1.22214 z m -9.9994,-9.94823 a 1.2219827,1.2219827 0 0 1 -1.22214,-1.22214 1.2219827,1.2219827 0 0 1 1.22214,-1.22163 1.2219827,1.2219827 0 0 1 1.22164,1.22163 1.2219827,1.2219827 0 0 1 -1.22164,1.22214 z" />
  </g>
</svg>
