<?xml version="1.0" encoding="UTF-8" standalone="no"?>
<!-- Created with Inkscape (http://www.inkscape.org/) -->

<svg
   width="370mm"
   height="370mm"
   viewBox="0 0 370 370"
   version="1.1"
   id="svg16658"
   sodipodi:docname="top-slope_one-side_greebles.svg"
   inkscape:version="1.2.1 (9c6d41e410, 2022-07-14)"
   xmlns:inkscape="http://www.inkscape.org/namespaces/inkscape"
   xmlns:sodipodi="http://sodipodi.sourceforge.net/DTD/sodipodi-0.dtd"
   xmlns="http://www.w3.org/2000/svg"
   xmlns:svg="http://www.w3.org/2000/svg">
  <sodipodi:namedview
     id="namedview16660"
     pagecolor="#ffffff"
     bordercolor="#666666"
     borderopacity="1.0"
     inkscape:showpageshadow="2"
     inkscape:pageopacity="0.0"
     inkscape:pagecheckerboard="0"
     inkscape:deskcolor="#d1d1d1"
     inkscape:document-units="mm"
     showgrid="false"
     inkscape:zoom="0.76251274"
     inkscape:cx="718.67652"
     inkscape:cy="1001.9505"
     inkscape:window-width="1920"
     inkscape:window-height="986"
     inkscape:window-x="-11"
     inkscape:window-y="1429"
     inkscape:window-maximized="1"
     inkscape:current-layer="layer1" />
  <defs
     id="defs16655" />
  <g
     inkscape:label="Layer 1"
     inkscape:groupmode="layer"
     id="layer1"
     transform="translate(37.486665,43.660665)">
    <path
       id="path13731"
       style="fill:none;fill-opacity:1;stroke:#ff0000;stroke-width:0.05;stroke-linecap:butt;stroke-linejoin:miter;stroke-opacity:1;stroke-dasharray:none"
       d="M -17.707437,41.102154 V 315.83427 L 111.29246,230.96816 v -1.10489 -6.0001 h -2.9998 v -5.99961 h 2.9998 v -6.05649 h -2.9998 v -6.0002 h 2.9998 v -6.05651 h -2.9998 v -6.00011 h 2.9998 v -6.05599 h -2.9998 v -6.0001 h 2.9998 v -6.0565 h -2.9998 v -6.0001 h 2.9998 v -6.056 h -2.9998 v -6.0002 h 2.9998 v -6.0564 h -2.9998 v -6.0002 h 2.9998 v -6.0565 h -2.9998 v -5.9996 h 2.9998 v -6.0001 -1.5002 z" />
    <path
       id="rect5051"
       style="fill:none;fill-opacity:1;stroke:#ff0000;stroke-width:0.05;stroke-dasharray:none;stroke-opacity:1;stroke-dashoffset:0"
       d="m 303.03586,97.197708 v -3.00034 h 11.99979 1.50016 v -110 h -1.50016 -11.99979 v -3.00034 h -8.99997 v 3.00034 h -12.0003 v -3.00034 h -8.99996 v 3.00034 h -11.99979 v -3.00034 h -8.99997 v 3.00034 h -12.0003 v -3.00034 h -8.99996 v 3.00034 h -11.99979 v -3.00034 h -8.99997 v 3.00034 h -12.0003 v -3.00034 h -8.99996 v 3.00034 h -11.99978 v -3.00034 h -8.99997 v 3.00034 h -12.0003 v -3.00034 h -8.99997 v 3.00034 h -11.16831 v -5.2e-4 -2.99982 h -8.99996 v 2.99982 5.2e-4 h -7.4998 v -5.2e-4 -2.99982 h -8.99997 -5.2e-4 v 2.99982 h 5.2e-4 v 5.2e-4 H 77.367477 v 4.99969 a 50,50 0 0 1 50.000043,50.00005 50,50 0 0 1 -50.000043,50.00005 v 5.00021 h 32.999533 v 2.99982 h 9.00049 v -2.99982 h 7.4998 v 2.99982 h 8.99996 v -2.99982 h 11.16831 v 3.00034 h 8.99997 v -3.00034 h 12.0003 v 3.00034 h 8.99997 v -3.00034 h 11.99978 v 3.00034 h 8.99996 v -3.00034 h 12.0003 v 3.00034 h 8.99997 v -3.00034 h 11.99979 v 3.00034 h 8.99996 v -3.00034 h 12.0003 v 3.00034 h 8.99997 v -3.00034 h 11.99979 v 3.00034 h 8.99996 v -3.00034 h 12.0003 v 3.00034 z" />
    <g
       id="g31298"
       transform="rotate(90,-77.134713,171.21991)"
       style="fill:none;stroke:#ff0000;stroke-opacity:1;stroke-width:0.05;stroke-dasharray:none">
      <g
         id="g28434"
         transform="translate(-407.36478,-2.0819324)"
         style="fill:none;stroke:#ff0000;stroke-opacity:1;stroke-width:0.05;stroke-dasharray:none">
        <ellipse
           style="fill:none;stroke-width:0.05;stroke:#ff0000;stroke-opacity:1;stroke-dasharray:none"
           id="path28397"
           cx="214.76659"
           cy="-1.9497879"
           rx="6.694315"
           ry="6.2454338" />
        <ellipse
           style="fill:none;stroke-width:0.05;stroke:#ff0000;stroke-opacity:1;stroke-dasharray:none"
           id="ellipse28421"
           cx="214.76659"
           cy="14.243846"
           rx="6.694315"
           ry="6.2454338" />
        <ellipse
           style="fill:none;stroke-width:0.05;stroke:#ff0000;stroke-opacity:1;stroke-dasharray:none"
           id="ellipse28423"
           cx="214.76659"
           cy="31.909628"
           rx="6.694315"
           ry="6.2454338" />
        <ellipse
           style="fill:none;stroke-width:0.05;stroke:#ff0000;stroke-opacity:1;stroke-dasharray:none"
           id="ellipse28425"
           cx="214.76659"
           cy="49.084694"
           rx="6.694315"
           ry="6.2454338" />
        <ellipse
           style="fill:none;stroke-width:0.05;stroke:#ff0000;stroke-opacity:1;stroke-dasharray:none"
           id="ellipse28427"
           cx="214.76659"
           cy="67.486549"
           rx="6.694315"
           ry="6.2454338" />
      </g>
      <g
         id="g28457"
         transform="translate(-405.64727,-8.2485369)"
         style="fill:none;stroke:#ff0000;stroke-opacity:1;stroke-width:0.05;stroke-dasharray:none">
        <ellipse
           style="fill:none;stroke-width:0.05;stroke:#ff0000;stroke-opacity:1;stroke-dasharray:none"
           id="ellipse28438"
           cx="197.61989"
           cy="11.454879"
           rx="6.694315"
           ry="6.2454338" />
        <ellipse
           style="fill:none;stroke-width:0.05;stroke:#ff0000;stroke-opacity:1;stroke-dasharray:none"
           id="ellipse28440"
           cx="197.61989"
           cy="29.120661"
           rx="6.694315"
           ry="6.2454338" />
        <ellipse
           style="fill:none;stroke-width:0.05;stroke:#ff0000;stroke-opacity:1;stroke-dasharray:none"
           id="ellipse28442"
           cx="197.61989"
           cy="46.295727"
           rx="6.694315"
           ry="6.2454338" />
        <ellipse
           style="fill:none;stroke-width:0.05;stroke:#ff0000;stroke-opacity:1;stroke-dasharray:none"
           id="ellipse28444"
           cx="197.61989"
           cy="64.697586"
           rx="6.694315"
           ry="6.2454338" />
      </g>
      <g
         id="g28476"
         transform="translate(-407.8555,-8.9407633)"
         style="fill:none;stroke:#ff0000;stroke-opacity:1;stroke-width:0.05;stroke-dasharray:none">
        <ellipse
           style="fill:none;stroke-width:0.05;stroke:#ff0000;stroke-opacity:1;stroke-dasharray:none"
           id="ellipse28461"
           cx="185.94876"
           cy="22.954056"
           rx="6.694315"
           ry="6.2454338" />
        <ellipse
           style="fill:none;stroke-width:0.05;stroke:#ff0000;stroke-opacity:1;stroke-dasharray:none"
           id="ellipse28463"
           cx="185.94876"
           cy="40.129124"
           rx="6.694315"
           ry="6.2454338" />
        <ellipse
           style="fill:none;stroke-width:0.05;stroke:#ff0000;stroke-opacity:1;stroke-dasharray:none"
           id="ellipse28465"
           cx="185.94876"
           cy="58.530983"
           rx="6.694315"
           ry="6.2454338" />
      </g>
    </g>
    <g
       id="g31281"
       transform="rotate(-90,106.56548,20.816858)"
       style="fill:none;stroke:#ff0000;stroke-opacity:1;stroke-width:0.05;stroke-dasharray:none">
      <g
         id="g28545"
         transform="translate(-407.36478,-2.0819324)"
         style="fill:none;stroke:#ff0000;stroke-opacity:1;stroke-width:0.05;stroke-dasharray:none">
        <path
           id="rect28530"
           style="fill:none;fill-opacity:1;stroke:#ff0000;stroke-width:0.05;stroke-dasharray:none;stroke-dashoffset:0;stroke-opacity:1"
           d="m 253.3535,78.53513 -11.9124,-22.08186 -11.91267,22.08187 0.002,0.005 h 2.7e-4 23.81951 2.7e-4 z" />
        <path
           id="path28535"
           style="fill:none;fill-opacity:1;stroke:#ff0000;stroke-width:0.05;stroke-dasharray:none;stroke-dashoffset:0;stroke-opacity:1"
           d="m 253.3535,53.887841 -11.9124,-22.08186 -11.91267,22.08187 0.002,0.005 h 2.7e-4 23.81951 2.7e-4 z" />
        <path
           id="path28537"
           style="fill:none;fill-opacity:1;stroke:#ff0000;stroke-width:0.05;stroke-dasharray:none;stroke-dashoffset:0;stroke-opacity:1"
           d="m 253.3535,25.292427 -11.9124,-22.08186 -11.91267,22.08187 0.002,0.005 h 2.7e-4 23.81951 2.7e-4 z" />
        <path
           id="path28539"
           style="fill:none;fill-opacity:1;stroke:#ff0000;stroke-width:0.05;stroke-dasharray:none;stroke-dashoffset:0;stroke-opacity:1"
           d="m 253.3535,-3.302987 -11.9124,-22.08186 -11.91267,22.08187 0.002,0.005 h 2.7e-4 23.81951 2.7e-4 z" />
      </g>
      <g
         id="g28555"
         transform="matrix(0.81495168,0,0,0.81495168,-336.43314,4.2854407)"
         style="fill:none;stroke:#ff0000;stroke-opacity:1;stroke-width:0.06135333;stroke-dasharray:none">
        <path
           id="path28547"
           style="fill:none;fill-opacity:1;stroke:#ff0000;stroke-width:0.06135333;stroke-dasharray:none;stroke-dashoffset:0;stroke-opacity:1"
           d="m 253.3535,78.53513 -11.9124,-22.08186 -11.91267,22.08187 0.002,0.005 h 2.7e-4 23.81951 2.7e-4 z" />
        <path
           id="path28549"
           style="fill:none;fill-opacity:1;stroke:#ff0000;stroke-width:0.06135333;stroke-dasharray:none;stroke-dashoffset:0;stroke-opacity:1"
           d="m 253.3535,53.887841 -11.9124,-22.08186 -11.91267,22.08187 0.002,0.005 h 2.7e-4 23.81951 2.7e-4 z" />
        <path
           id="path28551"
           style="fill:none;fill-opacity:1;stroke:#ff0000;stroke-width:0.06135333;stroke-dasharray:none;stroke-dashoffset:0;stroke-opacity:1"
           d="m 253.3535,25.292427 -11.9124,-22.08186 -11.91267,22.08187 0.002,0.005 h 2.7e-4 23.81951 2.7e-4 z" />
        <path
           id="path28553"
           style="fill:none;fill-opacity:1;stroke:#ff0000;stroke-width:0.06135333;stroke-dasharray:none;stroke-dashoffset:0;stroke-opacity:1"
           d="m 253.3535,-3.302987 -11.9124,-22.08186 -11.91267,22.08187 0.002,0.005 h 2.7e-4 23.81951 2.7e-4 z" />
      </g>
    </g>
    <g
       id="g454"
       transform="translate(-129.32607,-193.96406)">
      <path
         id="path19794"
         style="fill:none;fill-opacity:1;stroke:#ff0000;stroke-width:0.05;stroke-dasharray:none;stroke-opacity:1"
         d="m 357.32289,303.35048 c -0.15382,0.0476 -3.28847,5.37926 -6.01668,10.234 -8.85955,15.76515 -14.03025,27.22642 -16.13339,35.75957 -2.39183,9.70451 -1.63177,16.15969 3.10059,26.33276 0.31,0.6664 1.3928,2.97596 2.40605,5.13199 3.34202,7.1112 5.21777,11.80234 7.06314,17.66197 0.6495,2.06239 1.2587,4.24714 1.82728,6.49624 l -0.11834,0.0413 c 0,0 0.26577,0.78123 0.65732,2.17093 0.93542,3.98273 1.72997,8.13451 2.32286,12.24318 0.33917,1.65091 0.58224,3.43118 0.70022,4.97359 -0.54983,-0.05 -1.09627,-0.1105 -1.63969,-0.17932 -3.15926,-15.06042 -8.34004,-32.4746 -18.43142,-42.24393 -3.44378,-3.22146 -7.71402,-5.87011 -12.0897,-7.49877 -2.32611,-0.86579 -5.74351,-1.69774 -7.77731,-1.89342 -0.50746,-0.0489 -1.12584,-0.0781 -1.80505,-0.0889 -2.03765,-0.0322 -4.62632,0.10042 -6.43269,0.35399 -8.89567,1.24873 -15.84643,5.27533 -20.1073,11.64735 -2.83639,4.24174 -4.16982,8.4335 -4.33048,13.61622 -0.16517,5.32794 0.82137,9.68565 3.22047,14.22601 0.70415,1.33261 1.95068,3.33406 2.22209,3.56774 0.0516,0.0445 0.30762,0.37116 0.56896,0.72657 3.07433,4.18091 8.45661,8.03845 14.30507,10.2526 1.6224,0.6142 2.10013,0.74541 2.10013,0.57516 0,-0.0426 -0.10626,-0.35176 -0.23616,-0.68678 -0.32837,-0.84685 -0.99219,-3.55902 -1.29191,-5.27926 -1.14116,-6.54967 0.30237,-12.25575 3.96978,-15.6931 3.96664,-3.71784 10.30304,-5.04131 17.31987,-3.61787 4.885,0.99099 9.97253,3.52667 13.89838,6.92723 2.98141,2.5825 5.70191,6.31556 7.1298,9.78389 0.65186,1.43408 1.15663,2.67434 1.43451,4.04674 -0.44868,-0.12719 -0.89281,-0.26086 -1.33221,-0.40256 -0.69573,-0.22436 -1.23261,-0.3328 -1.66657,-0.3235 -0.43396,0.009 -0.76534,0.13601 -1.05006,0.38137 -0.44144,0.38033 -0.45283,0.43251 -0.4408,1.97921 0.0275,3.54071 1.21184,5.74151 3.96461,7.36699 0.23349,0.13787 0.48695,0.27318 0.75293,0.40618 -0.0933,1.56256 -0.1962,2.48049 -0.69713,3.89307 -2.46978,6.96709 -8.07929,10.70607 -12.74857,8.49716 -2.96504,-1.4027 -4.95762,-5.16265 -5.59966,-10.56577 l -0.19999,-1.68361 -0.46664,0.55293 c -4.36939,5.17714 -5.56188,11.24427 -3.15691,16.06156 2.10479,4.21598 6.63323,7.20966 11.59567,7.66568 h 5.2e-4 c 4.74241,0.43561 9.08155,-1.35915 12.28245,-5.08083 2.75324,-3.20117 4.80273,-8.86111 5.2002,-14.35985 0.14254,-0.936 0.16317,-2.04425 0.19681,-2.93583 0.48135,0.0921 0.96461,0.17207 1.44642,0.23977 -0.65082,9.66943 -2.40881,15.91319 -7.39748,23.35623 -1.28864,1.91023 -5.47458,7.57139 -6.12107,8.27857 -0.18242,0.19956 -0.27665,0.41774 -0.20981,0.48472 0.21227,0.21274 3.17252,0.24305 4.19768,0.0429 1.98363,-0.38725 3.95631,-1.46321 5.67459,-3.09542 l 1.17512,-1.11621 0.10955,1.01441 c 0.54578,5.05661 2.58783,10.79721 5.86321,16.48323 0.49904,0.86632 0.95229,1.5751 1.00718,1.5751 0.13852,0 1.44309,-2.22948 2.25309,-3.85093 2.03919,-4.08202 3.37265,-8.44973 3.97495,-13.01626 0.12795,-0.97012 0.25307,-1.78425 0.2775,-1.80867 0.0244,-0.0244 0.58354,0.38559 1.24282,0.91105 2.71259,2.16197 5.83864,3.04471 8.94157,2.52491 l 0.7767,-0.13022 -1.35857,-1.48311 c -7.12701,-8.13132 -9.86443,-14.75763 -11.23704,-23.34746 -0.30058,-1.96381 -0.5407,-4.19391 -0.66663,-6.68383 0.47625,-0.0504 0.94498,-0.11092 1.40612,-0.18086 0.26602,2.80555 0.315,4.7573 1.34075,8.61623 2.02589,7.39787 6.40148,12.08667 12.4349,13.32477 2.17397,0.44613 5.37177,0.23981 7.51221,-0.48473 4.42529,-1.49798 7.86896,-4.96745 9.05681,-9.12399 0.45177,-1.58091 0.42016,-4.64956 -0.0672,-6.46214 -0.62545,-2.32615 -2.26451,-5.39883 -3.94033,-7.38766 l -0.57567,-0.68316 -0.10749,1.00665 c -0.48493,4.5345 -1.57999,7.51411 -3.52537,9.59373 -0.51697,0.55263 -1.24491,1.18303 -1.61747,1.40095 -0.86279,0.42683 -3.8785,0.98348 -5.16059,0.6518 -5.50659,-1.42458 -8.35466,-6.51993 -8.92851,-12.36509 2.8081,-1.42956 4.12383,-3.15461 4.54804,-5.94641 0.54565,-3.59088 -0.0255,-4.90298 -1.87172,-4.3031 -0.64064,0.20814 -1.51071,0.44125 -2.466,0.66973 0.18819,-1.47289 0.98965,-2.84229 1.46866,-4.04888 1.54131,-3.89572 4.52214,-7.8452 8.08427,-10.71046 8.54626,-6.87436 20.20391,-8.78267 27.7368,-4.54081 0.88011,0.4956 1.75304,1.19326 2.81792,2.25258 1.26744,1.26082 1.67495,1.79398 2.28203,2.98845 1.60246,3.15306 2.15415,6.35716 1.76165,10.22625 -0.25026,2.46704 -1.08478,6.31262 -1.75545,8.08839 -0.10398,0.27529 0.095,0.21812 2.52388,-0.72295 3.97777,-1.54118 7.25371,-3.55231 10.28619,-6.31538 2.1623,-1.97019 2.89055,-2.78995 4.485,-5.04465 2.16941,-3.06778 3.84296,-6.9703 4.64623,-10.83552 0.44846,-2.158 0.60268,-6.18618 0.32711,-8.55658 -0.79172,-6.8101 -4.27077,-13.02526 -9.64541,-17.23202 -5.10428,-3.99515 -11.91496,-6.12158 -19.71249,-6.17068 -0.51984,-0.003 -1.04411,0.002 -1.57251,0.0181 -2.51461,0.0726 -3.20588,0.15261 -4.94285,0.57206 -5.11411,1.23499 -9.39758,3.23426 -13.54026,6.32054 -2.24214,1.67039 -5.4601,4.78187 -7.19336,6.95462 -6.6325,8.31428 -11.21546,19.62834 -13.43949,33.1804 -0.56328,2.70416 -0.67612,3.15241 -0.92823,4.72115 -0.52182,0.062 -1.04422,0.11612 -1.56631,0.16175 0.0346,-1.96121 0.65123,-3.85366 0.8607,-5.31434 2.07772,-14.6086 5.39066,-25.12262 12.33103,-39.13043 0.79242,-1.59936 1.60307,-3.28944 1.80092,-3.75584 0.19786,-0.4664 0.64077,-1.44814 0.98496,-2.18126 1.62091,-3.45251 2.91443,-7.79911 3.2613,-10.95902 0.24258,-2.20996 0.0896,-6.31702 -0.32866,-8.8098 -1.54733,-9.22096 -6.66806,-21.28312 -16.62328,-39.1573 -3.80753,-6.83625 -6.70772,-11.79445 -6.86935,-11.7445 z"
         sodipodi:nodetypes="sssssscccccccsscsssssssssssssccscsssccsscsssssccccsssscssssssssccccccsssssccscscssccssssssssssssccsssccccssssssss" />
      <path
         style="opacity:0.789639;fill:none;fill-opacity:1;stroke:#0000ff;stroke-width:0.161551;stroke-opacity:1"
         d="m 342.16025,422.21279 c -0.43396,0.009 -0.76535,0.13611 -1.05008,0.38147 -0.44144,0.38033 -0.45283,0.43229 -0.4408,1.979 0.0275,3.54071 1.21186,5.74151 3.96463,7.36699 2.14333,1.2656 5.74536,2.35305 9.15446,2.7634 5.78315,0.69613 11.78555,-0.05 15.61114,-1.9405 2.92752,-1.44669 4.28748,-3.18495 4.72032,-6.03356 0.54565,-3.59089 -0.0252,-4.90307 -1.8714,-4.30319 -1.47845,0.48036 -4.1509,1.09707 -6.3737,1.47068 -7.57764,1.27368 -15.36966,0.79274 -22.04826,-1.36088 -0.69573,-0.22436 -1.23235,-0.33271 -1.66631,-0.32341 z"
         id="path19932" />
    </g>
  </g>
</svg>
