<?xml version="1.0" encoding="UTF-8" standalone="no"?>
<!-- Created with Inkscape (http://www.inkscape.org/) -->

<svg
   width="370mm"
   height="370mm"
   viewBox="0 0 370 370"
   version="1.1"
   id="svg16658"
   sodipodi:docname="top_one-side_one-side-slope.svg"
   inkscape:version="1.2.1 (9c6d41e410, 2022-07-14)"
   xmlns:inkscape="http://www.inkscape.org/namespaces/inkscape"
   xmlns:sodipodi="http://sodipodi.sourceforge.net/DTD/sodipodi-0.dtd"
   xmlns="http://www.w3.org/2000/svg"
   xmlns:svg="http://www.w3.org/2000/svg">
  <sodipodi:namedview
     id="namedview16660"
     pagecolor="#ffffff"
     bordercolor="#666666"
     borderopacity="1.0"
     inkscape:showpageshadow="2"
     inkscape:pageopacity="0.0"
     inkscape:pagecheckerboard="0"
     inkscape:deskcolor="#d1d1d1"
     inkscape:document-units="mm"
     showgrid="false"
     inkscape:zoom="0.53917793"
     inkscape:cx="443.2674"
     inkscape:cy="812.34779"
     inkscape:window-width="1920"
     inkscape:window-height="986"
     inkscape:window-x="-11"
     inkscape:window-y="1429"
     inkscape:window-maximized="1"
     inkscape:current-layer="layer1" />
  <defs
     id="defs16655" />
  <g
     inkscape:label="Layer 1"
     inkscape:groupmode="layer"
     id="layer1"
     transform="translate(37.486665,43.660665)">
    <path
       id="path9717"
       style="fill:none;fill-opacity:1;stroke:#000000;stroke-width:0.05;stroke-dasharray:none;stroke-dashoffset:0;stroke-opacity:1"
       d="m 316.81015,99.373302 v -1.50528 -108.90764 l -1.50527,1e-5 -9.03377,-1e-5 10e-6,-3.01107 -6.02268,10e-6 v 3.01107 h -8.43203 v -3.01107 l -6.0227,-10e-6 v 3.01107 h -8.43204 v -3.01106 h -6.02268 l 10e-6,3.01107 -8.43207,-1e-5 -10e-6,-3.01107 -6.02213,10e-6 v 3.01107 h -8.43257 l -1e-5,-3.01107 h -6.02216 v 3.01106 h -8.43257 v -3.01107 l -6.02214,10e-6 -10e-6,3.01107 h -8.43205 l -1e-5,-3.01107 -6.02267,-10e-6 1e-5,3.01107 h -8.43206 l 1e-5,-3.01107 -6.02269,10e-6 1e-5,3.01107 -8.43207,-1e-5 v -3.01106 h -6.02266 l -1e-5,3.01107 -7.52846,-1e-5 -1.50529,1e-5 1e-5,49.5186 v 9.48969 z" />
    <path
       id="path15941"
       style="fill:none;fill-opacity:1;stroke:#000000;stroke-width:0.05;stroke-dasharray:none;stroke-opacity:1"
       d="m -27.100185,79.799136 v 15.000105 h 3.00033 v 8.999889 h -3.00033 v 12.00037 h 3.00033 v 9.00002 h -3.00033 v 11.99979 h 3.00033 v 9 h -3.00033 v 12.00032 h 2.99982 l 5.1e-4,8.99989 h -3.00033 v 11.99979 h 3.00033 v 9 h -3.00033 v 12.00032 h 3.00033 v 9 h -3.00033 v 11.99968 h 3.00033 v 9 h -3.00033 v 12.00032 h 3.00033 v 9 h -3.00033 v 11.16828 h 2.99982 v 9 h -2.99982 v 7.4998 h 2.99982 v 9.00041 h -2.99982 v 32.99959 H 247.63193 v -32.99959 h -5.2e-4 -2.99981 v -8.99991 -5e-4 h 2.99981 v 5e-4 h 5.2e-4 v -7.5003 h -5.2e-4 -2.99981 v -9 h 2.99981 5.2e-4 v -11.16829 h -3.00084 l 5.1e-4,-9 h 3.00033 v -12.00031 h -3.00033 v -9 h 3.00033 v -11.99969 h -3.00033 v -9 h 3.00033 v -12.00031 h -3.00033 v -9 h 3.00033 v -11.9998 h -3.00033 v -8.99989 h 3.00033 v -12.00031 h -3.00033 v -9 h 3.00033 v -11.9998 h -3.00033 v -9 h 2.99981 l 5.2e-4,-12.00037 h -3.00034 v -8.999899 h 3.00033 V 79.799136 Z" />
    <path
       id="rect5051"
       style="fill:none;fill-opacity:1;stroke:#000000;stroke-width:0.05;stroke-dasharray:none;stroke-opacity:1"
       d="m -13.259414,-37.789045 v 3.00034 h -11.999792 -1.50016 v 110 h 1.50016 11.999792 v 3.00034 h 8.9999736 v -3.00034 H 7.7408567 v 3.00034 h 8.9999573 v -3.00034 h 11.99979 v 3.00034 h 8.99997 v -3.00034 h 12.0003 v 3.00034 h 8.99996 v -3.00034 h 11.99979 v 3.00034 h 8.99997 v -3.00034 h 12.0003 v 3.00034 h 8.999926 v -3.00034 h 11.99977 v 3.00034 h 8.99997 v -3.00034 h 12.00029 v 3.00034 h 8.99997 v -3.00034 h 11.16832 v 5.2e-4 2.99982 h 8.99995 v -2.99982 -5.2e-4 h 7.4998 v 5.2e-4 2.99982 h 8.99998 5.1e-4 v -2.99982 h -5.1e-4 v -5.2e-4 h 33.00004 v -4.99969 a 50,50 0 0 1 -50.00003,-50.00005 50,50 0 0 1 50.00003,-50.00005 v -5.00021 h -32.99952 v -2.99982 h -9.0005 v 2.99982 h -7.4998 v -2.99982 h -8.99995 v 2.99982 h -11.16831 v -3.00034 h -8.99996 v 3.00034 h -12.0003 v -3.00034 h -8.99997 v 3.00034 h -11.99977 v -3.00034 h -8.999936 v 3.00034 h -12.0003 v -3.00034 h -8.99997 v 3.00034 h -11.99979 v -3.00034 h -8.99996 v 3.00034 h -12.0003 v -3.00034 h -8.99997 v 3.00034 h -11.99979 v -3.00034 H 7.7408567 v 3.00034 H -4.2594404 v -3.00034 z" />
  </g>
</svg>
